<?xml version="1.0" encoding="utf-8"?>
<svg viewBox="0 0 500 500" xmlns="http://www.w3.org/2000/svg">
  <path style="stroke: rgb(203, 4, 4); stroke-width: 0px; stroke-opacity: 0; fill: rgb(85, 85, 85);" d="M 499.99 250 C 499.99 232.741 498.242 215.891 494.912 199.616 C 491.58 183.344 486.67 167.644 480.344 152.69 C 474.019 137.736 466.279 123.524 457.293 110.223 C 448.309 96.924 438.077 84.533 426.767 73.224 C 415.457 61.913 403.067 51.682 389.767 42.695 C 376.467 33.711 362.256 25.972 347.302 19.646 C 332.347 13.321 316.648 8.409 300.374 5.078 C 284.099 1.749 267.248 0 249.991 0 C 232.732 0 215.882 1.749 199.606 5.078 C 183.332 8.409 167.634 13.321 152.678 19.646 C 137.723 25.972 123.512 33.711 110.214 42.695 C 96.914 51.682 84.523 61.913 73.213 73.224 C 61.903 84.533 51.671 96.924 42.687 110.222 C 33.702 123.523 25.962 137.733 19.637 152.689 C 13.31 167.643 8.4 183.343 5.068 199.615 C 1.738 215.89 -0.01 232.741 -0.01 250 C -0.01 267.26 1.738 284.11 5.068 300.385 C 8.4 316.657 13.31 332.357 19.637 347.311 C 25.962 362.267 33.702 376.477 42.687 389.778 C 51.671 403.079 61.903 415.467 73.213 426.776 C 84.523 438.087 96.914 448.318 110.214 457.305 C 123.512 466.29 137.723 474.029 152.678 480.355 C 167.634 486.679 183.332 491.591 199.606 494.922 C 215.882 498.251 232.732 500 249.991 500 C 267.248 500 284.099 498.251 300.374 494.922 C 316.648 491.591 332.347 486.679 347.302 480.355 C 362.256 474.029 376.467 466.29 389.767 457.305 C 403.067 448.318 415.457 438.087 426.767 426.776 C 438.077 415.467 448.309 403.079 457.293 389.778 C 466.279 376.477 474.017 362.267 480.344 347.311 C 486.67 332.357 491.58 316.657 494.912 300.385 C 498.242 284.11 499.99 267.26 499.99 250 Z"/>
  <path d="M 64.86799652099609 243.55900512695314 L 59.78299652099609 240.52900512695314 L 64.86799652099609 237.49900512695314 C 65.0779965209961 237.36400512695312 65.1529965209961 237.19900512695312 65.1529965209961 236.97400512695313 C 65.1529965209961 236.5240051269531 64.6579965209961 236.31400512695313 64.2829965209961 236.50900512695313 L 58.44799652099609 240.01900512695312 C 58.23799652099609 240.18400512695314 58.132996520996095 240.34900512695313 58.132996520996095 240.54400512695312 C 58.132996520996095 240.76900512695312 58.23799652099609 240.94900512695312 58.44799652099609 241.06900512695313 L 64.2829965209961 244.57900512695312 C 64.62799652099609 244.80400512695311 65.1529965209961 244.53400512695313 65.1529965209961 244.06900512695313 C 65.1529965209961 243.85900512695312 65.0629965209961 243.69400512695313 64.86799652099609 243.55900512695314 Z" transform="matrix(15.438944816589355, 0, 0, 17.937076568603516, -888.4780883789062, -4072.172607421875)" style="fill: rgb(160, 160, 160); stroke-linejoin: round; white-space: pre;"/>
  <path d="M 70.76325775146485 245.8990051269531 C 71.84325775146485 245.8990051269531 72.78825775146484 245.55400512695311 73.49325775146484 244.89400512695312 C 73.71825775146485 244.68400512695314 73.68825775146485 244.38400512695313 73.43325775146485 244.15900512695313 C 73.22325775146484 243.97900512695313 72.92325775146485 244.00900512695313 72.69825775146484 244.20400512695312 C 72.20325775146485 244.63900512695312 71.54325775146485 244.84900512695313 70.76325775146485 244.84900512695313 C 69.00825775146484 244.84900512695313 67.79325775146485 243.51400512695312 67.79325775146485 241.72900512695313 C 67.79325775146485 239.8990051269531 68.93325775146485 238.59400512695314 70.61325775146484 238.59400512695314 C 71.51325775146485 238.59400512695314 72.20325775146485 238.92400512695312 72.80325775146484 239.58400512695312 C 73.01325775146485 239.82400512695312 73.29825775146485 239.8690051269531 73.52325775146484 239.71900512695314 C 73.80825775146485 239.5240051269531 73.86825775146484 239.23900512695312 73.65825775146484 238.98400512695312 C 72.87825775146484 238.0240051269531 71.84325775146485 237.54400512695312 70.61325775146484 237.54400512695312 C 68.31825775146484 237.54400512695312 66.66825775146485 239.31400512695313 66.66825775146485 241.72900512695313 C 66.66825775146485 244.09900512695313 68.39325775146484 245.8990051269531 70.76325775146485 245.8990051269531 Z" transform="matrix(15.438944816589355, 0, 0, 17.937076568603516, -888.4780883789062, -4072.172607421875)" style="fill: rgb(213, 64, 64); stroke-linejoin: round; white-space: pre;"/>
  <path d="M 75.84832885742188 246.9940051269531 C 76.07332885742187 246.9940051269531 76.29832885742188 246.90400512695314 76.38832885742187 246.66400512695313 L 81.09832885742188 234.90400512695314 C 81.24832885742188 234.51400512695312 81.00832885742187 234.07900512695312 80.57332885742187 234.07900512695312 C 80.33332885742188 234.07900512695312 80.12332885742188 234.2140051269531 80.03332885742188 234.42400512695312 L 75.32332885742187 246.16900512695312 C 75.15832885742188 246.60400512695313 75.42832885742187 246.9940051269531 75.84832885742188 246.9940051269531 Z" transform="matrix(15.438944816589355, 0, 0, 17.937076568603516, -888.4780883789062, -4072.172607421875)" style="fill: rgb(205, 255, 113); stroke-linejoin: round; white-space: pre;"/>
  <path d="M 89.01867584228516 240.01900512695312 L 83.18367584228515 236.50900512695313 C 82.80867584228515 236.31400512695313 82.31367584228515 236.5240051269531 82.31367584228515 236.97400512695313 C 82.31367584228515 237.19900512695312 82.38867584228515 237.36400512695312 82.59867584228516 237.49900512695314 L 87.68367584228515 240.52900512695314 L 82.59867584228516 243.55900512695314 C 82.40367584228515 243.69400512695313 82.31367584228515 243.85900512695312 82.31367584228515 244.06900512695313 C 82.31367584228515 244.53400512695313 82.83867584228516 244.80400512695311 83.18367584228515 244.57900512695312 L 89.01867584228516 241.06900512695313 C 89.22867584228516 240.94900512695312 89.33367584228516 240.76900512695312 89.33367584228516 240.54400512695312 C 89.33367584228516 240.34900512695313 89.22867584228516 240.18400512695314 89.01867584228516 240.01900512695312 Z" transform="matrix(15.438944816589355, 0, 0, 17.937076568603516, -888.4780883789062, -4072.172607421875)" style="fill: rgb(160, 160, 160); stroke-linejoin: round; white-space: pre;"/>
</svg>